<svg width="26" height="26" viewBox="0 0 26 26" fill="none" xmlns="http://www.w3.org/2000/svg">
    <path d="M21.5556 8.50688L15.8681 2.81938C15.754 2.70506 15.5991 2.64077 15.4375 2.64062H5.6875C5.3104 2.64062 4.94874 2.79043 4.68208 3.05708C4.41543 3.32374 4.26563 3.6854 4.26562 4.0625V21.9375C4.26563 22.3146 4.41543 22.6763 4.68208 22.9429C4.94874 23.2096 5.3104 23.3594 5.6875 23.3594H20.3125C20.6896 23.3594 21.0513 23.2096 21.3179 22.9429C21.5846 22.6763 21.7344 22.3146 21.7344 21.9375V8.9375C21.7342 8.77594 21.6699 8.62105 21.5556 8.50688ZM16.0469 4.72062L19.6544 8.32812H16.0469V4.72062ZM20.3125 22.1406H5.6875C5.63363 22.1406 5.58196 22.1192 5.54387 22.0811C5.50578 22.043 5.48438 21.9914 5.48438 21.9375V4.0625C5.48438 4.00863 5.50578 3.95696 5.54387 3.91887C5.58196 3.88078 5.63363 3.85938 5.6875 3.85938H14.8281V8.9375C14.8281 9.09912 14.8923 9.25411 15.0066 9.36839C15.1209 9.48267 15.2759 9.54688 15.4375 9.54688H20.5156V21.9375C20.5156 21.9914 20.4942 22.043 20.4561 22.0811C20.418 22.1192 20.3664 22.1406 20.3125 22.1406Z" fill="black"/>
</svg>
