<svg width="24" height="24" viewBox="0 0 24 24" fill="none" xmlns="http://www.w3.org/2000/svg">
    <path d="M13.0251 2.05C14.2918 2.18333 15.4708 2.53733 16.5621 3.112C17.6534 3.68667 18.5994 4.42 19.4001 5.312C20.2001 6.204 20.8291 7.225 21.2871 8.375C21.7451 9.525 21.9744 10.7417 21.9751 12.025C21.9751 14.6083 21.1208 16.8457 19.4121 18.737C17.7034 20.6283 15.5661 21.716 13.0001 22V20C15.0168 19.7167 16.6834 18.8207 18.0001 17.312C19.3168 15.8033 19.9751 14.041 19.9751 12.025C19.9751 10.0083 19.3168 8.24567 18.0001 6.737C16.6834 5.22833 15.0251 4.33267 13.0251 4.05V2.05ZM12.0251 7L17.0501 12.05L15.6251 13.475L13.0251 10.875L13.0251 17H11.0251L11.0251 10.875L8.4501 13.45L7.0251 12L12.0251 7ZM11.0251 2.05V4.05C10.3084 4.15 9.62076 4.34167 8.9621 4.625C8.30343 4.90833 7.6911 5.26667 7.1251 5.7L5.6751 4.25C6.45843 3.63333 7.3001 3.13733 8.2001 2.762C9.1001 2.38667 10.0418 2.14933 11.0251 2.05ZM7.0751 18.35C7.65843 18.7833 8.2791 19.1417 8.9371 19.425C9.5951 19.7083 10.2828 19.9 11.0001 20V22C10.0168 21.9 9.0751 21.6623 8.1751 21.287C7.2751 20.9117 6.44176 20.416 5.6751 19.8L7.0751 18.35ZM4.2751 5.7L5.6751 7.125C5.24176 7.69167 4.89176 8.304 4.6251 8.962C4.35843 9.62 4.1751 10.3077 4.0751 11.025H2.0251C2.15843 10.0417 2.40843 9.09567 2.7751 8.187C3.14176 7.27833 3.64176 6.44933 4.2751 5.7ZM4.0751 13.025C4.1751 13.7417 4.35843 14.429 4.6251 15.087C4.89176 15.745 5.24176 16.3577 5.6751 16.925L4.2751 18.35C3.64176 17.6 3.13343 16.7707 2.7501 15.862C2.36676 14.9533 2.1251 14.0077 2.0251 13.025H4.0751Z" fill="white" fill-opacity="0.87"/>
</svg>
