<svg width="48" height="48" viewBox="0 0 48 48" fill="none" xmlns="http://www.w3.org/2000/svg">
    <path fill-rule="evenodd" clip-rule="evenodd" d="M48 24C48 37.2552 37.2552 48 24 48C10.7448 48 0 37.2552 0 24C0 10.7448 10.7448 0 24 0C37.2552 0 48 10.7448 48 24ZM14.6664 33.3336C14.4414 33.1086 14.3151 32.8034 14.3151 32.4852C14.3151 32.167 14.4414 31.8618 14.6664 31.6368L22.3032 24L14.6664 16.3632C14.4478 16.1369 14.3269 15.8338 14.3296 15.5191C14.3323 15.2045 14.4585 14.9035 14.681 14.681C14.9035 14.4585 15.2045 14.3323 15.5191 14.3296C15.8338 14.3269 16.1369 14.4478 16.3632 14.6664L24 22.3032L31.6368 14.6664C31.8631 14.4478 32.1662 14.3269 32.4809 14.3296C32.7955 14.3323 33.0965 14.4585 33.319 14.681C33.5415 14.9035 33.6677 15.2045 33.6704 15.5191C33.6731 15.8338 33.5522 16.1369 33.3336 16.3632L25.6968 24L33.3336 31.6368C33.5522 31.8631 33.6731 32.1662 33.6704 32.4809C33.6677 32.7955 33.5415 33.0965 33.319 33.319C33.0965 33.5415 32.7955 33.6677 32.4809 33.6704C32.1662 33.6731 31.8631 33.5522 31.6368 33.3336L24 25.6968L16.3632 33.3336C16.1382 33.5586 15.833 33.6849 15.5148 33.6849C15.1966 33.6849 14.8914 33.5586 14.6664 33.3336Z" fill="#F74747"/>
</svg>
